<svg xmlns="http://www.w3.org/2000/svg" width="13.1" height="13.1" viewBox="0 0 13.1 13.1">
    <g>
        <g>
            <g>
                <g>
                    <g>
                        <g>
                            <g transform="translate(-308)">
                                <circle cx="6.55" cy="6.55" r="6.55" fill="#fff" transform="translate(308)"/>
                                <g>
                                    <path fill-rule="evenodd" d="M6.549 0A6.549 6.549 0 1 1 0 6.549 6.549 6.549 0 0 1 6.549 0zM4.722 3.564a.408.408 0 0 0-.579 0l-.579.579a.408.408 0 0 0 0 .579L5.3 6.457 3.564 8.194a.409.409 0 0 0 0 .58l.579.579a.41.41 0 0 0 .579 0l1.737-1.738 1.735 1.738a.411.411 0 0 0 .58 0l.579-.579a.411.411 0 0 0 0-.58L7.616 6.457l1.736-1.735a.408.408 0 0 0 0-.579l-.578-.579a.409.409 0 0 0-.58 0L6.459 5.3z" transform="translate(308)"/>
                                </g>
                            </g>
                        </g>
                    </g>
                </g>
            </g>
        </g>
    </g>
</svg>
